<svg width="36" height="36" viewBox="0 0 36 36" fill="none" xmlns="http://www.w3.org/2000/svg">
<path d="M36 8.00086V34.0001C36 34.5305 35.7893 35.0392 35.4142 35.4142C35.0392 35.7893 34.5305 36 34.0001 36H8.00086C7.47045 36 6.96176 35.7893 6.5867 35.4142C6.21163 35.0392 6.00093 34.5305 6.00093 34.0001C6.00093 33.4696 6.21163 32.961 6.5867 32.5859C6.96176 32.2108 7.47045 32.0001 8.00086 32.0001H29.1727L0.586094 3.41601C0.210824 3.04074 -3.95411e-09 2.53176 0 2.00105C3.95411e-09 1.47034 0.210824 0.961364 0.586094 0.586094C0.961364 0.210824 1.47034 3.95411e-09 2.00105 0C2.53176 -3.95411e-09 3.04074 0.210824 3.41601 0.586094L32.0001 29.1727V8.00086C32.0001 7.47045 32.2108 6.96176 32.5859 6.5867C32.961 6.21163 33.4696 6.00093 34.0001 6.00093C34.5305 6.00093 35.0392 6.21163 35.4142 6.5867C35.7893 6.96176 36 7.47045 36 8.00086Z" fill="white"/>
</svg>
