<svg width="257" height="28" viewBox="0 0 257 28" fill="none" xmlns="http://www.w3.org/2000/svg">
<path d="M0.08 3.96H37.52V10.8H0.08V3.96ZM14.3 10.332H23.3V27H14.3V10.332ZM49.7099 0.107999V5.508H40.5659V0.107999H49.7099ZM40.8179 9.36H49.4579V27H40.8179V9.36ZM53.3192 9.36H61.9592V27H53.3192V9.36ZM74.9192 8.82C76.3352 8.82 77.7032 8.976 79.0232 9.288C80.3432 9.576 81.5192 10.08 82.5512 10.8C83.6072 11.52 84.4472 12.504 85.0712 13.752C85.6952 15 86.0072 16.572 86.0072 18.468V27H77.3672V19.548C77.3672 17.748 76.8992 16.476 75.9632 15.732C75.0272 14.964 73.3352 14.58 70.8872 14.58C69.5912 14.58 68.3312 14.724 67.1072 15.012C65.9072 15.3 64.8272 15.648 63.8672 16.056C62.9072 16.44 62.1512 16.824 61.5992 17.208L61.5272 15.84C61.6232 15.408 61.9472 14.808 62.4992 14.04C63.0752 13.248 63.9032 12.456 64.9832 11.664C66.0632 10.872 67.4192 10.2 69.0512 9.648C70.7072 9.096 72.6632 8.82 74.9192 8.82ZM98.5352 8.82C99.9512 8.82 101.319 8.976 102.639 9.288C103.959 9.576 105.135 10.08 106.167 10.8C107.223 11.52 108.063 12.504 108.687 13.752C109.311 15 109.623 16.572 109.623 18.468V27H100.983V19.548C100.983 17.748 100.515 16.476 99.5792 15.732C98.6432 14.964 96.9512 14.58 94.5032 14.58C93.2072 14.58 91.9472 14.724 90.7232 15.012C89.5232 15.3 88.4432 15.648 87.4832 16.056C86.5232 16.44 85.7672 16.824 85.2152 17.208L85.1432 15.48C85.2392 15.12 85.5992 14.58 86.2232 13.86C86.8472 13.14 87.7232 12.396 88.8512 11.628C90.0032 10.86 91.3832 10.2 92.9912 9.648C94.6232 9.096 96.4712 8.82 98.5352 8.82ZM137.21 20.664H145.706C145.49 22.056 144.794 23.268 143.618 24.3C142.466 25.332 140.774 26.136 138.542 26.712C136.334 27.264 133.514 27.54 130.082 27.54C126.458 27.54 123.326 27.252 120.686 26.676C118.07 26.1 116.054 25.128 114.638 23.76C113.222 22.392 112.514 20.544 112.514 18.216C112.514 15.912 113.198 14.076 114.566 12.708C115.958 11.316 117.962 10.32 120.578 9.72C123.194 9.12 126.362 8.82 130.082 8.82C133.73 8.82 136.718 9.144 139.046 9.792C141.374 10.44 143.09 11.496 144.194 12.96C145.298 14.4 145.826 16.356 145.778 18.828H121.298C121.418 19.452 121.754 20.028 122.306 20.556C122.882 21.084 123.758 21.516 124.934 21.852C126.134 22.164 127.73 22.32 129.722 22.32C131.786 22.32 133.478 22.176 134.798 21.888C136.142 21.6 136.946 21.192 137.21 20.664ZM129.722 14.04C127.178 14.04 125.234 14.316 123.89 14.868C122.57 15.42 121.79 15.972 121.55 16.524H137.39C137.222 15.9 136.55 15.336 135.374 14.832C134.198 14.304 132.314 14.04 129.722 14.04ZM171.883 27.504C169.723 27.504 167.779 27.288 166.051 26.856C164.323 26.4 162.847 25.764 161.623 24.948C160.399 24.108 159.463 23.124 158.815 21.996C158.167 20.844 157.843 19.572 157.843 18.18C157.843 16.788 158.167 15.516 158.815 14.364C159.463 13.212 160.399 12.228 161.623 11.412C162.847 10.572 164.323 9.936 166.051 9.504C167.779 9.048 169.723 8.82 171.883 8.82C174.475 8.82 176.779 9.168 178.795 9.864C180.835 10.56 182.431 11.604 183.583 12.996C184.735 14.388 185.311 16.116 185.311 18.18C185.311 20.148 184.735 21.828 183.583 23.22C182.431 24.612 180.835 25.68 178.795 26.424C176.779 27.144 174.475 27.504 171.883 27.504ZM168.643 22.032C170.275 22.032 171.667 21.888 172.819 21.6C173.971 21.312 174.847 20.88 175.447 20.304C176.047 19.728 176.347 19.02 176.347 18.18C176.347 16.884 175.675 15.924 174.331 15.3C172.987 14.652 171.091 14.328 168.643 14.328C166.819 14.328 165.139 14.436 163.603 14.652C162.091 14.868 160.867 15.252 159.931 15.804C159.019 16.356 158.563 17.148 158.563 18.18C158.563 19.188 159.019 19.968 159.931 20.52C160.867 21.072 162.091 21.468 163.603 21.708C165.139 21.924 166.819 22.032 168.643 22.032ZM158.563 2.16V20.16C158.563 21.696 158.503 23.088 158.383 24.336C158.287 25.56 158.179 26.448 158.059 27H149.923V2.16H158.563ZM204.919 27.54C201.103 27.54 197.923 27.228 195.379 26.604C192.859 25.98 190.963 24.984 189.691 23.616C188.443 22.248 187.819 20.448 187.819 18.216C187.819 15.984 188.443 14.184 189.691 12.816C190.963 11.424 192.859 10.416 195.379 9.792C197.923 9.144 201.103 8.82 204.919 8.82C208.711 8.82 211.855 9.144 214.351 9.792C216.871 10.416 218.755 11.424 220.003 12.816C221.251 14.184 221.875 15.984 221.875 18.216C221.875 20.448 221.251 22.248 220.003 23.616C218.755 24.984 216.871 25.98 214.351 26.604C211.855 27.228 208.711 27.54 204.919 27.54ZM204.919 22.32C206.695 22.32 208.183 22.176 209.383 21.888C210.583 21.576 211.495 21.12 212.119 20.52C212.743 19.896 213.055 19.128 213.055 18.216C213.055 17.304 212.743 16.536 212.119 15.912C211.519 15.288 210.619 14.82 209.419 14.508C208.219 14.196 206.719 14.04 204.919 14.04C203.143 14.04 201.631 14.196 200.383 14.508C199.159 14.82 198.223 15.288 197.575 15.912C196.951 16.512 196.639 17.28 196.639 18.216C196.639 19.128 196.951 19.896 197.575 20.52C198.199 21.12 199.123 21.576 200.347 21.888C201.595 22.176 203.119 22.32 204.919 22.32ZM255.88 9.36L241.48 19.728L232.624 27H222.04L236.656 16.2L245.296 9.36H255.88ZM222.04 9.36H232.624L241.696 15.948L256.6 27H246.016L236.548 20.124L222.04 9.36Z" fill="black"/>
</svg>
