<svg width="18" height="16" viewBox="0 0 18 16" fill="none" xmlns="http://www.w3.org/2000/svg">
<path d="M16.6765 7.28813L13.3354 10.204L14.3363 14.5453C14.3892 14.7722 14.3741 15.0098 14.2928 15.2282C14.2115 15.4466 14.0676 15.6362 13.8792 15.7733C13.6907 15.9103 13.466 15.9888 13.2332 15.9989C13.0004 16.009 12.7697 15.9502 12.5701 15.8299L8.78375 13.5333L5.00552 15.8299C4.80592 15.9502 4.57528 16.009 4.34246 15.9989C4.10963 15.9888 3.88493 15.9103 3.69647 15.7733C3.508 15.6362 3.36413 15.4466 3.28283 15.2282C3.20153 15.0098 3.18642 14.7722 3.23938 14.5453L4.23876 10.2085L0.896879 7.28813C0.720124 7.13569 0.592311 6.93445 0.529469 6.70965C0.466628 6.48486 0.471554 6.24651 0.543631 6.0245C0.615708 5.8025 0.751727 5.60671 0.934631 5.4617C1.11753 5.31669 1.33918 5.22891 1.57177 5.20936L5.97675 4.82784L7.69621 0.726606C7.786 0.511407 7.93746 0.327586 8.13151 0.198289C8.32556 0.068992 8.55353 0 8.78671 0C9.01989 0 9.24786 0.068992 9.44191 0.198289C9.63596 0.327586 9.78742 0.511407 9.87721 0.726606L11.6019 4.82784L16.0054 5.20936C16.2379 5.22891 16.4596 5.31669 16.6425 5.4617C16.8254 5.60671 16.9614 5.8025 17.0335 6.0245C17.1056 6.24651 17.1105 6.48486 17.0477 6.70965C16.9848 6.93445 16.857 7.13569 16.6802 7.28813H16.6765Z" fill="#FFB344"/>
</svg>
